<?xml version="1.0" encoding="UTF-8"?><svg id="Capa_2" xmlns="http://www.w3.org/2000/svg" viewBox="0 0 31.62 31.59"><defs><style>.cls-1{fill:#f1e2d1;}</style></defs><g id="Capa_1-2"><path class="cls-1" d="M0,15.81c.05-2.26.08-4.53.16-6.79.07-1.86.49-3.65,1.57-5.21C3.06,1.89,4.91.77,7.2.35,8.79.06,10.4.01,12.02,0c2.97,0,5.94-.01,8.91.02,1.58.02,3.17.12,4.69.62,3.05,1.01,4.91,3.1,5.6,6.23.35,1.6.39,3.24.4,4.87.02,3.05.01,6.1-.01,9.14-.01,1.5-.11,3.01-.55,4.46-.97,3.18-3.09,5.12-6.33,5.82-1.7.37-3.44.39-5.17.4-2.76.02-5.52.02-8.28,0-1.58-.01-3.17-.08-4.71-.49-3.3-.88-5.33-3.02-6.08-6.33-.24-1.07-.32-2.19-.35-3.29-.06-1.88-.02-3.76-.02-5.64-.03,0-.07,0-.1,0ZM2.86,15.34c.04,2.39.05,4.34.11,6.28.02.76.09,1.52.23,2.27.44,2.37,1.82,3.92,4.19,4.46.92.21,1.88.3,2.82.31,3.09.05,6.17.06,9.26.05,1.5,0,3.01,0,4.49-.28,2.15-.43,3.65-1.62,4.32-3.76.33-1.05.42-2.13.43-3.22.02-3.76.02-7.52,0-11.28,0-.9-.11-1.82-.29-2.71-.42-2.05-1.62-3.45-3.65-4.1-.96-.31-1.95-.43-2.95-.44-3.46-.03-6.92-.05-10.39-.03-1.22,0-2.45.08-3.66.26-1.58.24-2.91.99-3.77,2.41-.65,1.07-.93,2.25-.97,3.47-.08,2.24-.11,4.49-.16,6.3Z"/><path class="cls-1" d="M15.82,7.68c4.44-.02,8.1,3.6,8.11,8.04.02,4.51-3.57,8.14-8.05,8.17-4.34.03-8.1-3.39-8.16-8-.06-4.56,3.56-8.19,8.1-8.21ZM15.83,21.05c2.89.02,5.25-2.35,5.26-5.27.01-2.86-2.35-5.24-5.22-5.25-2.9-.01-5.31,2.35-5.31,5.2,0,2.97,2.32,5.31,5.27,5.32Z"/><path class="cls-1" d="M22.36,7.38c0-1.05.84-1.91,1.9-1.91,1.03,0,1.88.85,1.89,1.89.01,1.03-.84,1.9-1.87,1.91-1.06,0-1.91-.83-1.92-1.88Z"/></g></svg>