<?xml version="1.0" encoding="UTF-8"?><svg id="Capa_2" xmlns="http://www.w3.org/2000/svg" viewBox="0 0 37.81 30.03"><defs><style>.cls-1{fill:#f1e2d1;}</style></defs><g id="Capa_1-2"><path class="cls-1" d="M37.81,10.11c0-1.75,0-3.5,0-5.25,0-.65-.18-1.31-.53-1.96-.52-.96-1.19-1.69-1.99-2.17-.8-.48-1.76-.72-2.85-.72-3.65,0-7.54-.01-11.89-.01-5.07,0-10.18,0-14.97,0-.76,0-1.37.08-1.89.25-1.11.36-2.04,1.02-2.69,1.91-.65.89-.99,1.99-.99,3.15v5.13c0,4.64,0,9.28,0,13.92v.03C0,24.81,0,25.2.06,25.57c.26,1.68,1.13,2.92,2.65,3.81.75.44,1.62.65,2.65.65h.02c1.83,0,3.77,0,6.28,0,1.21,0,2.41,0,3.62,0,.99,0,1.97,0,2.96,0h.66c1.32,0,2.67,0,3.97,0,1.3,0,2.65,0,3.97,0,2.32,0,4.21,0,5.96-.02,1.56-.01,2.87-.67,3.9-1.96.74-.92,1.1-1.82,1.1-2.75.02-5.06.02-10.21.01-15.19ZM3.32,3.44c.53-.56,1.22-.84,2.07-.84,2.35,0,4.69,0,7.04,0h9.14c1.41,0,2.83,0,4.24,0,2.59,0,4.7,0,6.63,0,.93,0,1.64.31,2.17.94.09.11.36.43.29.86-.06.43-.41.66-.54.75-.43.28-.86.57-1.27.85-.17.12-.35.23-.52.35l-2.1,1.4c-1.41.94-2.82,1.88-4.23,2.82l-.99.66c-1.86,1.24-3.79,2.52-5.68,3.79-.21.14-.42.21-.64.21s-.44-.07-.65-.21c-2.16-1.45-4.43-2.97-6.76-4.52-.99-.66-2-1.33-2.97-1.97-.66-.44-1.32-.87-1.97-1.31-1.01-.67-2.04-1.36-3.07-2.05-.19-.13-.54-.36-.59-.79-.05-.43.24-.74.41-.92ZM34.46,26.61c-.52.52-1.24.82-1.99.82h-.02c-1.85-.01-3.81-.02-6.35-.02-1.2,0-2.4,0-3.6,0-1.2,0-2.4,0-3.6,0H5.37c-1.68,0-2.76-1.08-2.76-2.76v-.52c0-4.82,0-9.8,0-14.71,0,0,0-.02,0-.03-.08-.57.19-.84.43-.96.12-.06.24-.09.37-.09.33,0,.54.19.64.28,0,0,.02.01.02.02,1.97,1.31,3.96,2.64,5.89,3.93l1.85,1.24c.65.43,1.3.87,1.95,1.3,1.41.94,2.88,1.91,4.31,2.88.23.15.51.24.8.24.34,0,.69-.11.99-.32,1.31-.9,2.66-1.8,3.97-2.66.58-.38,1.18-.78,1.77-1.18.99-.66,1.97-1.32,2.96-1.98.94-.63,1.87-1.25,2.81-1.88.48-.32.95-.64,1.43-.95.34-.22.68-.45,1.01-.67,0,0,0,0,.01,0,.08-.06.27-.21.55-.21.09,0,.19.02.28.05.16.06.54.26.53.84h0c0,.07,0,.13,0,.17v.03c0,1.38,0,2.79,0,4.15,0,3.62-.01,7.37.02,11.05,0,.76-.26,1.43-.77,1.95Z"/></g></svg>