<?xml version="1.0" encoding="UTF-8"?>
<svg xmlns="http://www.w3.org/2000/svg" version="1.1" viewBox="0 0 69 69">
  <defs>
    <style>
      .cls-1 {
        fill: #f1e2d1;
      }
    </style>
  </defs>
  <!-- Generator: Adobe Illustrator 28.7.1, SVG Export Plug-In . SVG Version: 1.2.0 Build 142)  -->
  <g>
    <g id="Capa_1">
      <g>
        <path class="cls-1" d="M1.7,47.8l1.6,1.5c5.9,5.5,12.9,8.6,20.8,9.2,1,0,2,.1,3,.1,5.7,0,11-1.4,15.7-4.1,9.1-5.3,14.8-13.5,16.7-24.1,0-.2.2-.4.3-.5,2.4-1.2,4.6-3,7.2-5.7,0,0,.2-.2.2-.3l.8-1.1-5.4,1c.6-.6,1.1-1.1,1.5-1.7.5-.7.9-1.4,1.4-2.1.2-.3.4-.6.6-.9l.2-.4s-6.5,1.3-8.6,1.4c-.3,0-.4,0-.6-.3-3.3-4-7.6-5.5-12.5-4.5-4.8,1.1-8.1,4.2-9.5,9.2-.2.6-.3,1.2-.3,1.8,0,.1,0,.2,0,.3-8.6-2.6-14.9-7.7-19.3-15.6l-.3-.6-.4.5c-1.6,1.7-2.6,3.5-3.2,5.7-.7,2.9-.5,5.8.9,8.6l-2.2-1.5-.2.7c-1.1,4.7,0,8.8,3.2,12.1l-1.6-.5v.7c0,1.5.5,3.6,1.4,5.2,1.3,2.4,3.2,4.3,5.7,5.5-8.9,3.2-17.1.5-17.1.5h0ZM61.2,26.2c-.3.2-.7.5-1,.7-.7.5-1.5.9-2.1,1.2-.5.3-.8.7-.9,1.2-.8,5.6-2.9,10.6-6.4,15.1-5.5,7.1-12.8,11-21.4,11.7-7.4.6-14.2-1.2-20.4-5.2,5.3.4,10.3-.8,14.9-3.7l1.1-.7-1.3-.2c-3.5-.5-6.1-1.9-7.8-4.4-.7-.9-1.2-1.8-1.4-2.8,2.1.4,4.2.2,6.1-.2l1.6-.3-1.8-.8c-.2-.1-.5-.2-.7-.3-1.3-.5-3-1.2-4.4-2.5-2.1-2-3.2-4.5-3.3-7.6h0c1.9,1.1,3.8,1.4,5.7,1.7l1.6.2-1.2-1.1c-4.7-4.2-5.7-8.8-3.1-14.1,5.2,7.8,12.4,12.9,21.5,14.9h.5c0,.1,0-.4,0-.4,0-.4,0-.9.1-1.3,0-.9.1-1.7.3-2.5,1-3.9,3.4-6.4,7.3-7.5,3.6-1,6.9-.1,9.8,2.6.4.4.8.9,1.2,1.5.3.4.7.8,1.6.7,1.1-.2,2.3-.3,3.4-.5h.8c0-.1-2.3,3.2-6.2,4.3,0,0,1.4.7,6,0Z"/>
        <path class="cls-1" d="M27,59c-1,0-2,0-3-.1-8-.6-15.1-3.8-21.1-9.3L.1,46.8l1.7.6c0,0,7.6,2.5,15.9-.2-2.3-1.3-3.9-3-5.1-5.3-.9-1.6-1.4-3.8-1.4-5.3v-1.2l.7.2c-2.5-3.2-3.3-7-2.4-11.4l.3-1.2,1.6,1.1c-.9-2.5-1-5.1-.4-7.7.6-2.2,1.6-4.1,3.3-5.8l.8-.9.6,1c4.3,7.7,10.4,12.8,18.6,15.3,0-.6.2-1.2.3-1.7,1.4-5.1,4.8-8.4,9.8-9.5,5-1.1,9.4.5,12.8,4.6.1.2.1.2.3.2,2-.1,8.5-1.4,8.5-1.4h.7c0-.1-.4.9-.4.9-.2.4-.4.7-.6,1v.2c-.5.7-.9,1.4-1.4,2-.2.3-.4.6-.7.8l5.1-1-1.4,1.9c0,.1-.2.3-.3.4-2.6,2.7-4.8,4.5-7.3,5.8,0,0,0,.1,0,.2-2,10.8-7.6,19-16.9,24.4-4.7,2.8-10.1,4.2-15.9,4.2ZM3,48.5l.5.5c5.8,5.4,12.7,8.5,20.6,9.1,1,0,2,.1,2.9.1,5.6,0,10.9-1.4,15.5-4.1,9.1-5.3,14.6-13.3,16.5-23.8,0-.3.3-.6.5-.7,2.4-1.2,4.6-3,7.1-5.6,0,0,.1-.2.2-.3l.2-.3-5.6,1.1.9-.9c.5-.5,1-1,1.5-1.6.5-.6.9-1.3,1.3-1.9v-.2c.2-.2.3-.4.4-.6-1.8.3-6.2,1.2-7.8,1.3-.4,0-.7-.1-.9-.4-3.2-3.9-7.4-5.4-12.1-4.4-4.7,1-7.9,4.1-9.2,8.9-.2.6-.2,1.1-.3,1.8,0,0,0,.1,0,.2v.6c0,0-.5-.1-.5-.1-8.7-2.6-15.1-7.8-19.5-15.8h0c0-.1,0,0,0,0-1.6,1.6-2.6,3.4-3.1,5.5-.7,2.8-.4,5.6.8,8.3l.6,1.3-2.9-1.9h0c-1,4.7,0,8.6,3.1,11.8l1.1,1.1-2.5-.8h0c0,1.6.5,3.6,1.3,5.1,1.2,2.4,3.1,4.1,5.6,5.4l.8.4-.9.3c-6.7,2.4-13,1.5-15.8.9ZM26.6,56.7c-6.4,0-12.3-1.8-17.8-5.4l-1.3-.8h1.5c5.2.5,10.1-.7,14.6-3.5h.2c0-.1-.2-.2-.2-.2-3.6-.5-6.3-2-8.1-4.5-.7-1-1.2-1.9-1.5-3l-.2-.6h.6c2.1.5,4.2.2,5.9,0h.3c0,0-.8-.4-.8-.4-.2,0-.4-.2-.5-.2-1.5-.5-3.1-1.3-4.5-2.6-2.2-2.1-3.3-4.7-3.4-7.8v-.7s.6.4.6.4c1.8,1.1,3.7,1.4,5.5,1.7h.3s-.2-.1-.2-.1c-4.9-4.3-5.9-9.1-3.2-14.5l.3-.6.4.6c5.1,7.7,12.3,12.7,21.3,14.8h0s0,0,0,0c0-.4,0-.8,0-1.3v-.2c0-.9.1-1.7.3-2.5,1-4.1,3.6-6.7,7.6-7.8,3.7-1,7.1-.1,10.1,2.7.5.4.8.9,1.2,1.5.3.4.6.7,1.2.6,1.1-.2,2.3-.3,3.4-.5l1.7-.2-.5.7c0,.1-1.9,2.7-5.1,4.1.9,0,2.3,0,4.5-.3l1.7-.2-1.6,1.2c-.2.2-.5.4-.7.5-.7.5-1.4.9-2.1,1.2-.4.2-.6.5-.7.9-.8,5.6-3,10.8-6.5,15.3-5.6,7.2-12.9,11.2-21.7,11.9-1,0-1.9.1-2.9.1ZM10.5,51.4c5.8,3.5,12.1,5,18.9,4.4,8.6-.7,15.7-4.6,21.2-11.6,3.4-4.4,5.6-9.4,6.3-14.9,0-.7.4-1.2,1.1-1.5.5-.2,1.1-.6,1.7-1-3.4.3-4.6-.3-4.6-.3l-.9-.5,1-.3c2.6-.7,4.5-2.5,5.4-3.5-1.1.1-2.2.3-3.3.5-.8.1-1.5-.2-2-.9-.4-.6-.8-1-1.1-1.4-2.8-2.6-6-3.4-9.4-2.5-3.7,1-6.1,3.4-7,7.2-.2.7-.2,1.5-.3,2.3h0c0,.6,0,1-.1,1.5v1c0,0-1.1-.2-1.1-.2-9-2.1-16.2-6.9-21.4-14.5-2.1,4.8-1.1,9.1,3.3,13l2.2,2-2.9-.4c-1.7-.3-3.5-.6-5.2-1.4.2,2.6,1.2,4.8,3.1,6.6,1.3,1.2,2.8,1.9,4.2,2.4.2,0,.4.2.6.2l3.2,1.3-2.9.5c-1.6.3-3.6.6-5.5.3.3.7.7,1.4,1.2,2.1,1.7,2.3,4.2,3.7,7.6,4.2l2.4.3-2.1,1.3c-4.2,2.6-8.8,3.9-13.6,3.8Z"/>
      </g>
      <path class="cls-1" d="M42.3,27.7l4-4.6.5.6-1.2,1.5-2,2.4c0,0-.1,0-.2.1-.2,0-.7,0-.7,0h-.3Z"/>
      <path class="cls-1" d="M46.2,23.2l.3.4s0,0,.1.1c-1.1,1.3-2.1,2.5-3.2,3.8,0,0,0,0-.1,0-.2,0-.5,0-.7,0h0c1.3-1.5,2.5-2.9,3.7-4.4M46.2,22.9l-.2.2-1.7,2c-.7.8-1.4,1.6-2.1,2.4l-.3.3h.7c.2,0,.3,0,.5,0s.2,0,.3-.1c.6-.8,1.3-1.5,1.9-2.3l1.3-1.5h0c0-.1,0-.2,0-.2h0c0,0,0-.1,0-.1l-.3-.4v-.2h-.1Z"/>
      <polygon class="cls-1" points="48 21.2 48.1 20.9 51 17.5 51.1 17.5 51.8 17.5 52 17.5 52 17.6 52 17.6 48.4 21.8 48 21.2"/>
      <path class="cls-1" d="M51.9,17.6h0s0,0,0,0c-1.2,1.4-2.3,2.7-3.5,4-.1-.2-.2-.4-.4-.5.8-.9,1.5-1.7,2.3-2.6.2-.3.5-.6.7-.9,0,0,0,0,0,0,.3,0,.5,0,.8,0M51.9,17.4h0c-.3,0-.5,0-.8,0h0c-.1,0-.2,0-.2.1-.2.3-.5.6-.7.9-.8.9-1.5,1.7-2.3,2.6h0c0,.1,0,.2,0,.2l.2.3.2.3v.2c.1,0,.3-.2.3-.2,1.2-1.3,2.3-2.7,3.5-4h0v-.2h0s0-.1,0-.1h0s0,0,0,0h0s0,0,0,0h0Z"/>
      <polygon class="cls-1" points="49.9 27.1 49.8 27 43.6 18.2 43.7 18.1 45 18.1 45.1 18.1 51.2 27 51.1 27.1 49.9 27.1 49.9 27.1"/>
      <path class="cls-1" d="M45,18.2h0s0,0,0,0c1.7,2.4,3.3,4.9,5,7.3.3.5.6.9.9,1.3,0,0,0,0,0,0h-1.1s0,0,0,0c0,0,0,0,0,0-1-1.4-2-2.8-3-4.2-1-1.5-2.1-2.9-3.1-4.4,0,0,0,0,0-.1h0c.4,0,.8,0,1.2,0h0M45,18h0c-.4,0-.8,0-1.2,0h-.4s.2.3.2.3h0c0,0,0,.1,0,.1l1.2,1.6,2,2.8,1.5,2.1,1.5,2.1h0c0,.1.1.1.2.1h1.4s-.1-.3-.1-.3c0,0,0,0,0,0-.3-.4-.6-.9-.9-1.3-1.7-2.4-3.3-4.9-5-7.3,0,0,0,0-.1-.1h0s0,0,0,0h0Z"/>
    </g>
  </g>
</svg>